<svg width="230" height="82" viewBox="0 0 230 82" fill="none" xmlns="http://www.w3.org/2000/svg">
<path d="M95.52 57.48C93.6267 57.48 91.8667 57.1333 90.24 56.44C88.64 55.7467 87.2533 54.7867 86.08 53.56C84.9333 52.3067 84.0933 50.8533 83.56 49.2L88.08 47.24C88.8 48.9467 89.84 50.2933 91.2 51.28C92.56 52.24 94.0933 52.72 95.8 52.72C96.76 52.72 97.5867 52.5733 98.28 52.28C99 51.96 99.5467 51.5333 99.92 51C100.32 50.4667 100.52 49.8267 100.52 49.08C100.52 48.2 100.253 47.48 99.72 46.92C99.2133 46.3333 98.44 45.88 97.4 45.56L91.68 43.72C89.36 43 87.6133 41.92 86.44 40.48C85.2667 39.04 84.68 37.3467 84.68 35.4C84.68 33.6933 85.0933 32.1867 85.92 30.88C86.7733 29.5733 87.9467 28.56 89.44 27.84C90.96 27.0933 92.6933 26.72 94.64 26.72C96.4267 26.72 98.0667 27.04 99.56 27.68C101.053 28.2933 102.333 29.16 103.4 30.28C104.493 31.3733 105.307 32.6667 105.84 34.16L101.36 36.16C100.773 34.6667 99.8933 33.52 98.72 32.72C97.5467 31.8933 96.1867 31.48 94.64 31.48C93.7333 31.48 92.9333 31.64 92.24 31.96C91.5467 32.2533 91 32.68 90.6 33.24C90.2267 33.7733 90.04 34.4133 90.04 35.16C90.04 35.9867 90.3067 36.72 90.84 37.36C91.3733 37.9733 92.1867 38.4533 93.28 38.8L98.76 40.52C101.133 41.2933 102.907 42.36 104.08 43.72C105.28 45.08 105.88 46.76 105.88 48.76C105.88 50.4667 105.44 51.9733 104.56 53.28C103.68 54.5867 102.467 55.6133 100.92 56.36C99.3733 57.1067 97.5733 57.48 95.52 57.48ZM120.658 57.48C118.418 57.48 116.458 56.9733 114.778 55.96C113.098 54.9467 111.792 53.5733 110.858 51.84C109.925 50.1067 109.458 48.1867 109.458 46.08C109.458 43.8933 109.925 41.96 110.858 40.28C111.818 38.5733 113.112 37.2267 114.738 36.24C116.392 35.2533 118.232 34.76 120.258 34.76C121.965 34.76 123.458 35.04 124.738 35.6C126.045 36.16 127.152 36.9333 128.058 37.92C128.965 38.9067 129.658 40.04 130.138 41.32C130.618 42.5733 130.858 43.9333 130.858 45.4C130.858 45.7733 130.832 46.16 130.778 46.56C130.752 46.96 130.685 47.3067 130.578 47.6H113.778V43.6H127.618L125.138 45.48C125.378 44.2533 125.312 43.16 124.938 42.2C124.592 41.24 124.005 40.48 123.178 39.92C122.378 39.36 121.405 39.08 120.258 39.08C119.165 39.08 118.192 39.36 117.338 39.92C116.485 40.4533 115.832 41.2533 115.378 42.32C114.952 43.36 114.792 44.6267 114.898 46.12C114.792 47.4533 114.965 48.64 115.418 49.68C115.898 50.6933 116.592 51.48 117.498 52.04C118.432 52.6 119.498 52.88 120.698 52.88C121.898 52.88 122.912 52.6267 123.738 52.12C124.592 51.6133 125.258 50.9333 125.738 50.08L129.978 52.16C129.552 53.2 128.885 54.12 127.978 54.92C127.072 55.72 125.992 56.3467 124.738 56.8C123.512 57.2533 122.152 57.48 120.658 57.48ZM134.831 57V26.72H140.071V39.52L139.351 38.76C139.857 37.4533 140.684 36.4667 141.831 35.8C143.004 35.1067 144.364 34.76 145.911 34.76C147.511 34.76 148.924 35.1067 150.151 35.8C151.404 36.4933 152.377 37.4667 153.071 38.72C153.764 39.9467 154.111 41.3733 154.111 43V57H148.871V44.24C148.871 43.28 148.684 42.4533 148.311 41.76C147.937 41.0667 147.417 40.5333 146.751 40.16C146.111 39.76 145.351 39.56 144.471 39.56C143.617 39.56 142.857 39.76 142.191 40.16C141.524 40.5333 141.004 41.0667 140.631 41.76C140.257 42.4533 140.071 43.28 140.071 44.24V57H134.831ZM165.142 57.48C163.622 57.48 162.302 57.2267 161.182 56.72C160.062 56.2133 159.195 55.4933 158.582 54.56C157.968 53.6 157.662 52.4933 157.662 51.24C157.662 50.04 157.928 48.9733 158.462 48.04C158.995 47.08 159.822 46.28 160.942 45.64C162.062 45 163.475 44.5467 165.182 44.28L172.302 43.12V47.12L166.182 48.16C165.142 48.3467 164.368 48.68 163.862 49.16C163.355 49.64 163.102 50.2667 163.102 51.04C163.102 51.7867 163.382 52.3867 163.942 52.84C164.528 53.2667 165.248 53.48 166.102 53.48C167.195 53.48 168.155 53.2533 168.982 52.8C169.835 52.32 170.488 51.6667 170.942 50.84C171.422 50.0133 171.662 49.1067 171.662 48.12V42.52C171.662 41.5867 171.288 40.8133 170.542 40.2C169.822 39.56 168.862 39.24 167.662 39.24C166.542 39.24 165.542 39.5467 164.662 40.16C163.808 40.7467 163.182 41.5333 162.782 42.52L158.502 40.44C158.928 39.2933 159.595 38.3067 160.502 37.48C161.435 36.6267 162.528 35.96 163.782 35.48C165.035 35 166.395 34.76 167.862 34.76C169.648 34.76 171.222 35.0933 172.582 35.76C173.942 36.4 174.995 37.3067 175.742 38.48C176.515 39.6267 176.902 40.9733 176.902 42.52V57H171.942V53.28L173.062 53.2C172.502 54.1333 171.835 54.92 171.062 55.56C170.288 56.1733 169.408 56.6533 168.422 57C167.435 57.32 166.342 57.48 165.142 57.48ZM191.274 57.24C188.821 57.24 186.914 56.5733 185.554 55.24C184.221 53.88 183.554 51.9733 183.554 49.52V39.92H179.794V35.24H180.194C181.261 35.24 182.087 34.96 182.674 34.4C183.261 33.84 183.554 33.0267 183.554 31.96V30.28H188.794V35.24H193.794V39.92H188.794V49.24C188.794 49.96 188.914 50.5733 189.154 51.08C189.421 51.5867 189.821 51.9733 190.354 52.24C190.914 52.5067 191.621 52.64 192.474 52.64C192.661 52.64 192.874 52.6267 193.114 52.6C193.381 52.5733 193.634 52.5467 193.874 52.52V57C193.501 57.0533 193.074 57.1067 192.594 57.16C192.114 57.2133 191.674 57.24 191.274 57.24ZM197.878 57V35.24H203.118V57H197.878ZM197.878 32.8V27.2H203.118V32.8H197.878ZM207.956 57V35.24H212.876V39.52L212.476 38.76C212.982 37.4533 213.809 36.4667 214.956 35.8C216.129 35.1067 217.489 34.76 219.036 34.76C220.636 34.76 222.049 35.1067 223.276 35.8C224.529 36.4933 225.502 37.4667 226.196 38.72C226.889 39.9467 227.236 41.3733 227.236 43V57H221.996V44.24C221.996 43.28 221.809 42.4533 221.436 41.76C221.062 41.0667 220.542 40.5333 219.876 40.16C219.236 39.76 218.476 39.56 217.596 39.56C216.742 39.56 215.982 39.76 215.316 40.16C214.649 40.5333 214.129 41.0667 213.756 41.76C213.382 42.4533 213.196 43.28 213.196 44.24V57H207.956Z" fill="#43A36D"/>
<path d="M41.0001 16.2616C33.3792 8.64077 21.0245 8.64248 13.4036 16.2616C5.78277 23.8808 5.78277 36.2372 13.4036 43.8581L41.0001 71.4545L68.5965 43.8581" stroke="#43A36D" stroke-width="4" stroke-linecap="round" stroke-linejoin="round"/>
<path d="M13.4038 43.858L41.0002 71.4545L68.5966 43.858C76.2175 36.2372 76.2175 23.8808 68.5966 16.2616C60.9758 8.64245 48.6211 8.63903 41.0002 16.2616M31.8009 25.4593C31.1992 24.8443 30.4816 24.3548 29.6895 24.019C28.8975 23.6832 28.0467 23.5079 27.1864 23.5032C26.3261 23.4985 25.4734 23.6644 24.6776 23.9915C23.8819 24.3185 23.159 24.8001 22.5506 25.4085C21.9423 26.0168 21.4607 26.7397 21.1336 27.5355C20.8066 28.3312 20.6406 29.1839 20.6454 30.0442C20.6501 30.9045 20.8254 31.7553 21.1612 32.5474C21.497 33.3394 21.9865 34.0571 22.6015 34.6587L41.0002 16.2599" stroke="#43A36D" stroke-width="4" stroke-linecap="round" stroke-linejoin="round"/>
<path d="M22.6011 53.0574L50.1992 25.4593C50.7993 24.8379 51.5172 24.3423 52.3109 24.0013C53.1047 23.6603 53.9584 23.4809 54.8222 23.4734C55.6861 23.4659 56.5428 23.6306 57.3423 23.9577C58.1418 24.2849 58.8682 24.768 59.479 25.3789C60.0898 25.9898 60.5728 26.7163 60.8998 27.5159C61.2268 28.3155 61.3913 29.1722 61.3836 30.036C61.376 30.8999 61.1964 31.7535 60.8553 32.5472C60.5142 33.3409 60.0184 34.0587 59.3969 34.6587L40.9998 53.0574" stroke="#43A36D" stroke-width="4" stroke-linecap="round" stroke-linejoin="round"/>
</svg>
